<?xml version="1.0" encoding="UTF-8" standalone="no"?>
<!DOCTYPE svg PUBLIC "-//W3C//DTD SVG 1.1//EN"
"http://www.w3.org/Graphics/SVG/1.1/DTD/svg11.dtd">


<!-- Page 1 -->
<svg x="0" y="0" width="855" height="855" viewBox="0 0 855 855" version="1.1" xmlns="http://www.w3.org/2000/svg" xmlns:xlink="http://www.w3.org/1999/xlink"
style="display: block;margin-left: auto;margin-right: auto;">
<defs>

<style type="text/css"><![CDATA[

.g1_1{
}
.g2_1{
fill: none;
stroke: #231F20;
stroke-width: 1.5277778;
stroke-linecap: butt;
stroke-linejoin: miter;
}
.g3_1{
stroke: #231F20;
stroke-width: 1.5277778;
stroke-linecap: butt;
stroke-linejoin: miter;
}
.g4_1{
fill: none;
stroke: #0019FF;
stroke-width: 4.5833335;
stroke-linecap: butt;
stroke-linejoin: miter;
}


]]></style>

</defs>
<path d="M0,0
L0,855
L855,855
L855,0 Z " 
fill="#FFFFFF" stroke="none" />
<path d="M579.3,550.5l0,1.7c-67.6,0,-122.7,55.1,-122.7,122.9c0,67.7,55.1,122.8,122.7,122.8l0,1.6c-68.6,0,-124.4,-55.8,-124.4,-124.4c0,-68.7,55.8,-124.6,124.4,-124.6Z" class="g1_1" />
<path d="M579.3,550.5l0,1.7c-67.6,0,-122.7,55.1,-122.7,122.9c0,67.7,55.1,122.8,122.7,122.8l0,1.6c-68.6,0,-124.4,-55.8,-124.4,-124.4c0,-68.7,55.8,-124.6,124.4,-124.6Z" class="g2_1" />
<path d="M578.6,58.9l0,-1.7" class="g3_1" />
<path d="M579.3,56l0,1.7c-67.6,0,-122.7,55,-122.7,122.7c0,67.7,55.1,122.7,122.7,122.7l0,1.7C510.7,304.8,454.9,249,454.9,180.4C454.9,111.8,510.7,56,579.3,56Z" class="g1_1" />
<path d="M579.3,56l0,1.7c-67.6,0,-122.7,55,-122.7,122.7c0,67.7,55.1,122.7,122.7,122.7l0,1.7C510.7,304.8,454.9,249,454.9,180.4C454.9,111.8,510.7,56,579.3,56Z" class="g2_1" />
<path d="M703.3,427.7c0,32.8,-12.2,63.7,-34.3,87c-23.1,24.2,-55.1,37.5,-90.2,37.5l0,-1.6c34.7,0,66.3,-13.2,89,-37.1c21.8,-22.9,33.8,-53.4,33.8,-85.8c0,-35,-12.7,-66.6,-35.9,-89C643.1,316.8,612.3,304.8,578.8,304.8l0,-1.6c33.9,0,65.2,12.1,88,34.3c23.6,22.7,36.5,54.8,36.5,90.2Z" class="g1_1" />
<path d="M703.3,427.7c0,32.8,-12.2,63.7,-34.3,87c-23.1,24.2,-55.1,37.5,-90.2,37.5l0,-1.6c34.7,0,66.3,-13.2,89,-37.1c21.8,-22.9,33.8,-53.4,33.8,-85.8c0,-35,-12.7,-66.6,-35.9,-89C643.1,316.8,612.3,304.8,578.8,304.8l0,-1.6c33.9,0,65.2,12.1,88,34.3c23.6,22.7,36.5,54.8,36.5,90.2Z" class="g2_1" />
<path d="M554.2,550.5l0,1.7c-67.7,0,-122.7,55.1,-122.7,122.9c0,67.7,55,122.8,122.7,122.8l0,1.6c-68.6,0,-124.4,-55.8,-124.4,-124.4c0,-68.7,55.8,-124.6,124.4,-124.6Z" class="g1_1" />
<path d="M554.2,550.5l0,1.7c-67.7,0,-122.7,55.1,-122.7,122.9c0,67.7,55,122.8,122.7,122.8l0,1.6c-68.6,0,-124.4,-55.8,-124.4,-124.4c0,-68.7,55.8,-124.6,124.4,-124.6Z" class="g2_1" />
<path d="M553.5,58.9l0,-1.7" class="g3_1" />
<path d="M554.2,56l0,1.7c-67.7,0,-122.7,55,-122.7,122.7c0,67.7,55,122.7,122.7,122.7l0,1.7C485.6,304.8,429.8,249,429.8,180.4C429.8,111.8,485.6,56,554.2,56Z" class="g1_1" />
<path d="M554.2,56l0,1.7c-67.7,0,-122.7,55,-122.7,122.7c0,67.7,55,122.7,122.7,122.7l0,1.7C485.6,304.8,429.8,249,429.8,180.4C429.8,111.8,485.6,56,554.2,56Z" class="g2_1" />
<path d="M678.2,427.7c0,32.8,-12.2,63.7,-34.3,87c-23.1,24.2,-55.1,37.5,-90.2,37.5l0,-1.6c34.6,0,66.2,-13.2,89,-37.1c21.8,-22.9,33.8,-53.4,33.8,-85.8c0,-35,-12.8,-66.6,-35.9,-89C618,316.8,587.2,304.8,553.7,304.8l0,-1.6c33.9,0,65.2,12.1,88,34.3c23.5,22.7,36.5,54.8,36.5,90.2Z" class="g1_1" />
<path d="M678.2,427.7c0,32.8,-12.2,63.7,-34.3,87c-23.1,24.2,-55.1,37.5,-90.2,37.5l0,-1.6c34.6,0,66.2,-13.2,89,-37.1c21.8,-22.9,33.8,-53.4,33.8,-85.8c0,-35,-12.8,-66.6,-35.9,-89C618,316.8,587.2,304.8,553.7,304.8l0,-1.6c33.9,0,65.2,12.1,88,34.3c23.5,22.7,36.5,54.8,36.5,90.2Z" class="g2_1" />
<path d="M529.1,550.5l0,1.7c-67.7,0,-122.8,55.1,-122.8,122.9c0,67.7,55.1,122.8,122.8,122.8l0,1.6c-68.6,0,-124.4,-55.8,-124.4,-124.4c0,-68.7,55.8,-124.6,124.4,-124.6Z" class="g1_1" />
<path d="M529.1,550.5l0,1.7c-67.7,0,-122.8,55.1,-122.8,122.9c0,67.7,55.1,122.8,122.8,122.8l0,1.6c-68.6,0,-124.4,-55.8,-124.4,-124.4c0,-68.7,55.8,-124.6,124.4,-124.6Z" class="g2_1" />
<path d="M528.3,58.9l0,-1.7" class="g3_1" />
<path d="M529.1,56l0,1.7c-67.7,0,-122.8,55,-122.8,122.7c0,67.7,55.1,122.7,122.8,122.7l0,1.7C460.5,304.8,404.7,249,404.7,180.4C404.7,111.8,460.5,56,529.1,56Z" class="g1_1" />
<path d="M529.1,56l0,1.7c-67.7,0,-122.8,55,-122.8,122.7c0,67.7,55.1,122.7,122.8,122.7l0,1.7C460.5,304.8,404.7,249,404.7,180.4C404.7,111.8,460.5,56,529.1,56Z" class="g2_1" />
<path d="M653,427.7c0,32.8,-12.1,63.7,-34.3,87c-23,24.2,-55,37.5,-90.1,37.5l0,-1.6c34.6,0,66.2,-13.2,88.9,-37.1c21.9,-22.9,33.9,-53.4,33.9,-85.8c0,-35,-12.8,-66.6,-36,-89C592.9,316.8,562,304.8,528.6,304.8l0,-1.6c33.9,0,65.1,12.1,88,34.3c23.5,22.7,36.4,54.8,36.4,90.2Z" class="g1_1" />
<path d="M653,427.7c0,32.8,-12.1,63.7,-34.3,87c-23,24.2,-55,37.5,-90.1,37.5l0,-1.6c34.6,0,66.2,-13.2,88.9,-37.1c21.9,-22.9,33.9,-53.4,33.9,-85.8c0,-35,-12.8,-66.6,-36,-89C592.9,316.8,562,304.8,528.6,304.8l0,-1.6c33.9,0,65.1,12.1,88,34.3c23.5,22.7,36.4,54.8,36.4,90.2Z" class="g2_1" />
<path d="M515.8,74.2l0,-1.7" class="g3_1" />
<path d="M503.9,550.5l0,1.7c-67.6,0,-122.7,55.1,-122.7,122.9c0,67.7,55.1,122.8,122.7,122.8l0,1.6c-68.6,0,-124.4,-55.8,-124.4,-124.4c0,-68.7,55.8,-124.6,124.4,-124.6Z" class="g1_1" />
<path d="M503.9,550.5l0,1.7c-67.6,0,-122.7,55.1,-122.7,122.9c0,67.7,55.1,122.8,122.7,122.8l0,1.6c-68.6,0,-124.4,-55.8,-124.4,-124.4c0,-68.7,55.8,-124.6,124.4,-124.6Z" class="g2_1" />
<path d="M503.2,58.9l0,-1.7" class="g3_1" />
<path d="M503.9,56l0,1.7c-67.6,0,-122.7,55,-122.7,122.7c0,67.7,55.1,122.7,122.7,122.7l0,1.7C435.3,304.8,379.5,249,379.5,180.4C379.5,111.8,435.3,56,503.9,56Z" class="g1_1" />
<path d="M503.9,56l0,1.7c-67.6,0,-122.7,55,-122.7,122.7c0,67.7,55.1,122.7,122.7,122.7l0,1.7C435.3,304.8,379.5,249,379.5,180.4C379.5,111.8,435.3,56,503.9,56Z" class="g2_1" />
<path d="M627.9,427.7c0,32.8,-12.2,63.7,-34.3,87c-23,24.2,-55.1,37.5,-90.2,37.5l0,-1.6c34.7,0,66.3,-13.2,89,-37.1c21.8,-22.9,33.9,-53.4,33.9,-85.8c0,-35,-12.8,-66.6,-36,-89C567.8,316.8,536.9,304.8,503.4,304.8l0,-1.6c33.9,0,65.2,12.1,88,34.3c23.6,22.7,36.5,54.8,36.5,90.2Z" class="g1_1" />
<path d="M627.9,427.7c0,32.8,-12.2,63.7,-34.3,87c-23,24.2,-55.1,37.5,-90.2,37.5l0,-1.6c34.7,0,66.3,-13.2,89,-37.1c21.8,-22.9,33.9,-53.4,33.9,-85.8c0,-35,-12.8,-66.6,-36,-89C567.8,316.8,536.9,304.8,503.4,304.8l0,-1.6c33.9,0,65.2,12.1,88,34.3c23.6,22.7,36.5,54.8,36.5,90.2Z" class="g2_1" />
<path d="M490.6,74.2l0,-1.7" class="g3_1" />
<path d="M478.8,550.5l0,1.7c-67.7,0,-122.7,55.1,-122.7,122.9c0,67.7,55,122.8,122.7,122.8l0,1.6c-68.6,0,-124.4,-55.8,-124.4,-124.4c0,-68.7,55.8,-124.6,124.4,-124.6Z" class="g1_1" />
<path d="M478.8,550.5l0,1.7c-67.7,0,-122.7,55.1,-122.7,122.9c0,67.7,55,122.8,122.7,122.8l0,1.6c-68.6,0,-124.4,-55.8,-124.4,-124.4c0,-68.7,55.8,-124.6,124.4,-124.6Z" class="g2_1" />
<path d="M478.1,58.9l0,-1.7" class="g3_1" />
<path d="M478.8,56l0,1.7c-67.7,0,-122.7,55,-122.7,122.7c0,67.7,55,122.7,122.7,122.7l0,1.7C410.2,304.8,354.4,249,354.4,180.4C354.4,111.8,410.2,56,478.8,56Z" class="g1_1" />
<path d="M478.8,56l0,1.7c-67.7,0,-122.7,55,-122.7,122.7c0,67.7,55,122.7,122.7,122.7l0,1.7C410.2,304.8,354.4,249,354.4,180.4C354.4,111.8,410.2,56,478.8,56Z" class="g2_1" />
<path d="M602.8,427.7c0,32.8,-12.2,63.7,-34.3,87c-23.1,24.2,-55.1,37.5,-90.2,37.5l0,-1.6c34.6,0,66.2,-13.2,89,-37.1c21.8,-22.9,33.8,-53.4,33.8,-85.8c0,-35,-12.8,-66.6,-35.9,-89C542.6,316.8,511.8,304.8,478.3,304.8l0,-1.6c33.9,0,65.2,12.1,88,34.3c23.5,22.7,36.5,54.8,36.5,90.2Z" class="g1_1" />
<path d="M602.8,427.7c0,32.8,-12.2,63.7,-34.3,87c-23.1,24.2,-55.1,37.5,-90.2,37.5l0,-1.6c34.6,0,66.2,-13.2,89,-37.1c21.8,-22.9,33.8,-53.4,33.8,-85.8c0,-35,-12.8,-66.6,-35.9,-89C542.6,316.8,511.8,304.8,478.3,304.8l0,-1.6c33.9,0,65.2,12.1,88,34.3c23.5,22.7,36.5,54.8,36.5,90.2Z" class="g2_1" />
<path d="M465.5,74.2l0,-1.7" class="g3_1" />
<path d="M453.7,550.5l0,1.7c-67.7,0,-122.8,55.1,-122.8,122.9c0,67.7,55.1,122.8,122.8,122.8l0,1.6c-68.6,0,-124.4,-55.8,-124.4,-124.4c0,-68.7,55.8,-124.6,124.4,-124.6Z" class="g1_1" />
<path d="M453.7,550.5l0,1.7c-67.7,0,-122.8,55.1,-122.8,122.9c0,67.7,55.1,122.8,122.8,122.8l0,1.6c-68.6,0,-124.4,-55.8,-124.4,-124.4c0,-68.7,55.8,-124.6,124.4,-124.6Z" class="g2_1" />
<path d="M452.9,58.9l0,-1.7" class="g3_1" />
<path d="M453.7,56l0,1.7c-67.7,0,-122.8,55,-122.8,122.7c0,67.7,55.1,122.7,122.8,122.7l0,1.7C385.1,304.8,329.3,249,329.3,180.4C329.3,111.8,385.1,56,453.7,56Z" class="g1_1" />
<path d="M453.7,56l0,1.7c-67.7,0,-122.8,55,-122.8,122.7c0,67.7,55.1,122.7,122.8,122.7l0,1.7C385.1,304.8,329.3,249,329.3,180.4C329.3,111.8,385.1,56,453.7,56Z" class="g2_1" />
<path d="M577.7,427.7c0,32.8,-12.2,63.7,-34.3,87c-23.1,24.2,-55.1,37.5,-90.2,37.5l0,-1.6c34.6,0,66.2,-13.2,89,-37.1C564,490.6,576,460.1,576,427.7c0,-35,-12.8,-66.6,-36,-89C517.5,316.8,486.7,304.8,453.2,304.8l0,-1.6c33.9,0,65.1,12.1,88,34.3c23.5,22.7,36.5,54.8,36.5,90.2Z" class="g1_1" />
<path d="M577.7,427.7c0,32.8,-12.2,63.7,-34.3,87c-23.1,24.2,-55.1,37.5,-90.2,37.5l0,-1.6c34.6,0,66.2,-13.2,89,-37.1C564,490.6,576,460.1,576,427.7c0,-35,-12.8,-66.6,-36,-89C517.5,316.8,486.7,304.8,453.2,304.8l0,-1.6c33.9,0,65.1,12.1,88,34.3c23.5,22.7,36.5,54.8,36.5,90.2Z" class="g2_1" />
<path d="M440.4,74.2l0,-1.7" class="g3_1" />
<path d="M428.5,550.5l0,1.7c-67.6,0,-122.7,55.1,-122.7,122.9c0,67.7,55.1,122.8,122.7,122.8l0,1.6C360,799.5,304.2,743.7,304.2,675.1c0,-68.7,55.8,-124.6,124.3,-124.6Z" class="g1_1" />
<path d="M428.5,550.5l0,1.7c-67.6,0,-122.7,55.1,-122.7,122.9c0,67.7,55.1,122.8,122.7,122.8l0,1.6C360,799.5,304.2,743.7,304.2,675.1c0,-68.7,55.8,-124.6,124.3,-124.6Z" class="g2_1" />
<path d="M427.8,58.9l0,-1.7" class="g3_1" />
<path d="M428.5,56l0,1.7c-67.6,0,-122.7,55,-122.7,122.7c0,67.7,55.1,122.7,122.7,122.7l0,1.7C360,304.8,304.2,249,304.2,180.4C304.2,111.8,360,56,428.5,56Z" class="g1_1" />
<path d="M428.5,56l0,1.7c-67.6,0,-122.7,55,-122.7,122.7c0,67.7,55.1,122.7,122.7,122.7l0,1.7C360,304.8,304.2,249,304.2,180.4C304.2,111.8,360,56,428.5,56Z" class="g2_1" />
<path d="M552.5,427.7c0,32.8,-12.2,63.7,-34.3,87c-23,24.2,-55.1,37.5,-90.1,37.5l0,-1.6c34.6,0,66.2,-13.2,88.9,-37.1c21.8,-22.9,33.9,-53.4,33.9,-85.8c0,-35,-12.8,-66.6,-36,-89C492.4,316.8,461.5,304.8,428.1,304.8l0,-1.6c33.9,0,65.1,12.1,88,34.3c23.5,22.7,36.4,54.8,36.4,90.2Z" class="g1_1" />
<path d="M552.5,427.7c0,32.8,-12.2,63.7,-34.3,87c-23,24.2,-55.1,37.5,-90.1,37.5l0,-1.6c34.6,0,66.2,-13.2,88.9,-37.1c21.8,-22.9,33.9,-53.4,33.9,-85.8c0,-35,-12.8,-66.6,-36,-89C492.4,316.8,461.5,304.8,428.1,304.8l0,-1.6c33.9,0,65.1,12.1,88,34.3c23.5,22.7,36.4,54.8,36.4,90.2Z" class="g2_1" />
<path d="M415.3,74.2l0,-1.7" class="g3_1" />
<path d="M403.4,550.5l0,1.7c-67.7,0,-122.7,55.1,-122.7,122.9c0,67.7,55,122.8,122.7,122.8l0,1.6C334.8,799.5,279,743.7,279,675.1c0,-68.7,55.8,-124.6,124.4,-124.6Z" class="g1_1" />
<path d="M403.4,550.5l0,1.7c-67.7,0,-122.7,55.1,-122.7,122.9c0,67.7,55,122.8,122.7,122.8l0,1.6C334.8,799.5,279,743.7,279,675.1c0,-68.7,55.8,-124.6,124.4,-124.6Z" class="g2_1" />
<path d="M402.7,58.9l0,-1.7" class="g3_1" />
<path d="M403.4,56l0,1.7c-67.7,0,-122.7,55,-122.7,122.7c0,67.7,55,122.7,122.7,122.7l0,1.7C334.8,304.8,279,249,279,180.4C279,111.8,334.8,56,403.4,56Z" class="g1_1" />
<path d="M403.4,56l0,1.7c-67.7,0,-122.7,55,-122.7,122.7c0,67.7,55,122.7,122.7,122.7l0,1.7C334.8,304.8,279,249,279,180.4C279,111.8,334.8,56,403.4,56Z" class="g2_1" />
<path d="M527.4,427.7c0,32.8,-12.2,63.7,-34.3,87C470,538.9,438,552.2,402.9,552.2l0,-1.6c34.6,0,66.2,-13.2,89,-37.1c21.8,-22.9,33.8,-53.4,33.8,-85.8c0,-35,-12.7,-66.6,-35.9,-89C467.2,316.8,436.4,304.8,402.9,304.8l0,-1.6c33.9,0,65.2,12.1,88,34.3c23.5,22.7,36.5,54.8,36.5,90.2Z" class="g1_1" />
<path d="M527.4,427.7c0,32.8,-12.2,63.7,-34.3,87C470,538.9,438,552.2,402.9,552.2l0,-1.6c34.6,0,66.2,-13.2,89,-37.1c21.8,-22.9,33.8,-53.4,33.8,-85.8c0,-35,-12.7,-66.6,-35.9,-89C467.2,316.8,436.4,304.8,402.9,304.8l0,-1.6c33.9,0,65.2,12.1,88,34.3c23.5,22.7,36.5,54.8,36.5,90.2Z" class="g2_1" />
<path d="M390.1,74.2l0,-1.7" class="g3_1" />
<path d="M378.3,550.5l0,1.7c-67.7,0,-122.7,55.1,-122.7,122.9c0,67.7,55,122.8,122.7,122.8l0,1.6c-68.6,0,-124.4,-55.8,-124.4,-124.4c0,-68.7,55.8,-124.6,124.4,-124.6Z" class="g1_1" />
<path d="M378.3,550.5l0,1.7c-67.7,0,-122.7,55.1,-122.7,122.9c0,67.7,55,122.8,122.7,122.8l0,1.6c-68.6,0,-124.4,-55.8,-124.4,-124.4c0,-68.7,55.8,-124.6,124.4,-124.6Z" class="g2_1" />
<path d="M377.6,58.9l0,-1.7" class="g3_1" />
<path d="M378.3,56l0,1.7c-67.7,0,-122.7,55,-122.7,122.7c0,67.7,55,122.7,122.7,122.7l0,1.7C309.7,304.8,253.9,249,253.9,180.4C253.9,111.8,309.7,56,378.3,56Z" class="g1_1" />
<path d="M378.3,56l0,1.7c-67.7,0,-122.7,55,-122.7,122.7c0,67.7,55,122.7,122.7,122.7l0,1.7C309.7,304.8,253.9,249,253.9,180.4C253.9,111.8,309.7,56,378.3,56Z" class="g2_1" />
<path d="M502.3,427.7c0,32.8,-12.2,63.7,-34.3,87c-23.1,24.2,-55.1,37.5,-90.2,37.5l0,-1.6c34.6,0,66.2,-13.2,89,-37.1c21.8,-22.9,33.8,-53.4,33.8,-85.8c0,-35,-12.8,-66.6,-36,-89C442.1,316.8,411.3,304.8,377.8,304.8l0,-1.6c33.9,0,65.1,12.1,88,34.3c23.5,22.7,36.5,54.8,36.5,90.2Z" class="g1_1" />
<path d="M502.3,427.7c0,32.8,-12.2,63.7,-34.3,87c-23.1,24.2,-55.1,37.5,-90.2,37.5l0,-1.6c34.6,0,66.2,-13.2,89,-37.1c21.8,-22.9,33.8,-53.4,33.8,-85.8c0,-35,-12.8,-66.6,-36,-89C442.1,316.8,411.3,304.8,377.8,304.8l0,-1.6c33.9,0,65.1,12.1,88,34.3c23.5,22.7,36.5,54.8,36.5,90.2Z" class="g2_1" />
<path d="M365,74.2l0,-1.7" class="g3_1" />
<path d="M353.2,550.5l0,1.7c-67.7,0,-122.8,55.1,-122.8,122.9c0,67.7,55.1,122.8,122.8,122.8l0,1.6c-68.6,0,-124.4,-55.8,-124.4,-124.4c0,-68.7,55.8,-124.6,124.4,-124.6Z" class="g1_1" />
<path d="M353.2,550.5l0,1.7c-67.7,0,-122.8,55.1,-122.8,122.9c0,67.7,55.1,122.8,122.8,122.8l0,1.6c-68.6,0,-124.4,-55.8,-124.4,-124.4c0,-68.7,55.8,-124.6,124.4,-124.6Z" class="g2_1" />
<path d="M352.4,58.9l0,-1.7" class="g3_1" />
<path d="M353.2,56l0,1.7c-67.7,0,-122.8,55,-122.8,122.7c0,67.7,55.1,122.7,122.8,122.7l0,1.7C284.6,304.8,228.8,249,228.8,180.4C228.8,111.8,284.6,56,353.2,56Z" class="g1_1" />
<path d="M353.2,56l0,1.7c-67.7,0,-122.8,55,-122.8,122.7c0,67.7,55.1,122.7,122.8,122.7l0,1.7C284.6,304.8,228.8,249,228.8,180.4C228.8,111.8,284.6,56,353.2,56Z" class="g2_1" />
<path d="M477.1,427.7c0,32.8,-12.2,63.7,-34.3,87c-23,24.2,-55.1,37.5,-90.1,37.5l0,-1.6c34.6,0,66.2,-13.2,88.9,-37.1c21.8,-22.9,33.9,-53.4,33.9,-85.8c0,-35,-12.8,-66.6,-36,-89C417,316.8,386.1,304.8,352.7,304.8l0,-1.6c33.9,0,65.1,12.1,88,34.3c23.5,22.7,36.4,54.8,36.4,90.2Z" class="g1_1" />
<path d="M477.1,427.7c0,32.8,-12.2,63.7,-34.3,87c-23,24.2,-55.1,37.5,-90.1,37.5l0,-1.6c34.6,0,66.2,-13.2,88.9,-37.1c21.8,-22.9,33.9,-53.4,33.9,-85.8c0,-35,-12.8,-66.6,-36,-89C417,316.8,386.1,304.8,352.7,304.8l0,-1.6c33.9,0,65.1,12.1,88,34.3c23.5,22.7,36.4,54.8,36.4,90.2Z" class="g2_1" />
<path d="M339.9,74.2l0,-1.7" class="g3_1" />
<path d="M328,550.5l0,1.7c-67.7,0,-122.7,55.1,-122.7,122.9c0,67.7,55,122.8,122.7,122.8l0,1.6c-68.6,0,-124.4,-55.8,-124.4,-124.4c0,-68.7,55.8,-124.6,124.4,-124.6Z" class="g1_1" />
<path d="M328,550.5l0,1.7c-67.7,0,-122.7,55.1,-122.7,122.9c0,67.7,55,122.8,122.7,122.8l0,1.6c-68.6,0,-124.4,-55.8,-124.4,-124.4c0,-68.7,55.8,-124.6,124.4,-124.6Z" class="g2_1" />
<path d="M327.3,58.9l0,-1.7" class="g3_1" />
<path d="M328,56l0,1.7c-67.7,0,-122.7,55,-122.7,122.7c0,67.7,55,122.7,122.7,122.7l0,1.7C259.4,304.8,203.6,249,203.6,180.4C203.6,111.8,259.4,56,328,56Z" class="g1_1" />
<path d="M328,56l0,1.7c-67.7,0,-122.7,55,-122.7,122.7c0,67.7,55,122.7,122.7,122.7l0,1.7C259.4,304.8,203.6,249,203.6,180.4C203.6,111.8,259.4,56,328,56Z" class="g2_1" />
<path d="M452,427.7c0,32.8,-12.2,63.7,-34.3,87c-23.1,24.2,-55.1,37.5,-90.2,37.5l0,-1.6c34.7,0,66.3,-13.2,89,-37.1c21.8,-22.9,33.8,-53.4,33.8,-85.8c0,-35,-12.7,-66.6,-35.9,-89C391.8,316.8,361,304.8,327.5,304.8l0,-1.6c33.9,0,65.2,12.1,88,34.3C439,360.2,452,392.3,452,427.7Z" class="g1_1" />
<path d="M452,427.7c0,32.8,-12.2,63.7,-34.3,87c-23.1,24.2,-55.1,37.5,-90.2,37.5l0,-1.6c34.7,0,66.3,-13.2,89,-37.1c21.8,-22.9,33.8,-53.4,33.8,-85.8c0,-35,-12.7,-66.6,-35.9,-89C391.8,316.8,361,304.8,327.5,304.8l0,-1.6c33.9,0,65.2,12.1,88,34.3C439,360.2,452,392.3,452,427.7Z" class="g2_1" />
<path d="M314.7,74.2l0,-1.7" class="g3_1" />
<path d="M302.9,550.5l0,1.7c-67.7,0,-122.7,55.1,-122.7,122.9c0,67.7,55,122.8,122.7,122.8l0,1.6c-68.6,0,-124.4,-55.8,-124.4,-124.4c0,-68.7,55.8,-124.6,124.4,-124.6Z" class="g1_1" />
<path d="M302.9,550.5l0,1.7c-67.7,0,-122.7,55.1,-122.7,122.9c0,67.7,55,122.8,122.7,122.8l0,1.6c-68.6,0,-124.4,-55.8,-124.4,-124.4c0,-68.7,55.8,-124.6,124.4,-124.6Z" class="g2_1" />
<path d="M302.2,58.9l0,-1.7" class="g3_1" />
<path d="M302.9,56l0,1.7c-67.7,0,-122.7,55,-122.7,122.7c0,67.7,55,122.7,122.7,122.7l0,1.7C234.3,304.8,178.5,249,178.5,180.4C178.5,111.8,234.3,56,302.9,56Z" class="g1_1" />
<path d="M302.9,56l0,1.7c-67.7,0,-122.7,55,-122.7,122.7c0,67.7,55,122.7,122.7,122.7l0,1.7C234.3,304.8,178.5,249,178.5,180.4C178.5,111.8,234.3,56,302.9,56Z" class="g2_1" />
<path d="M426.9,427.7c0,32.8,-12.2,63.7,-34.3,87c-23.1,24.2,-55.1,37.5,-90.2,37.5l0,-1.6c34.6,0,66.2,-13.2,89,-37.1c21.8,-22.9,33.8,-53.4,33.8,-85.8c0,-35,-12.8,-66.6,-36,-89C366.7,316.8,335.9,304.8,302.4,304.8l0,-1.6c33.9,0,65.2,12.1,88,34.3c23.5,22.7,36.5,54.8,36.5,90.2Z" class="g1_1" />
<path d="M426.9,427.7c0,32.8,-12.2,63.7,-34.3,87c-23.1,24.2,-55.1,37.5,-90.2,37.5l0,-1.6c34.6,0,66.2,-13.2,89,-37.1c21.8,-22.9,33.8,-53.4,33.8,-85.8c0,-35,-12.8,-66.6,-36,-89C366.7,316.8,335.9,304.8,302.4,304.8l0,-1.6c33.9,0,65.2,12.1,88,34.3c23.5,22.7,36.5,54.8,36.5,90.2Z" class="g2_1" />
<path d="M289.6,74.2l0,-1.7" class="g3_1" />
<path d="M277.8,550.5l0,1.7C210.1,552.2,155,607.3,155,675.1c0,67.7,55.1,122.8,122.8,122.8l0,1.6c-68.6,0,-124.4,-55.8,-124.4,-124.4c0,-68.7,55.8,-124.6,124.4,-124.6Z" class="g1_1" />
<path d="M277.8,550.5l0,1.7C210.1,552.2,155,607.3,155,675.1c0,67.7,55.1,122.8,122.8,122.8l0,1.6c-68.6,0,-124.4,-55.8,-124.4,-124.4c0,-68.7,55.8,-124.6,124.4,-124.6Z" class="g2_1" />
<path d="M277,58.9l0,-1.7" class="g3_1" />
<path d="M277.8,56l0,1.7C210.1,57.7,155,112.7,155,180.4c0,67.7,55.1,122.7,122.8,122.7l0,1.7C209.2,304.8,153.4,249,153.4,180.4C153.4,111.8,209.2,56,277.8,56Z" class="g1_1" />
<path d="M277.8,56l0,1.7C210.1,57.7,155,112.7,155,180.4c0,67.7,55.1,122.7,122.8,122.7l0,1.7C209.2,304.8,153.4,249,153.4,180.4C153.4,111.8,209.2,56,277.8,56Z" class="g2_1" />
<path d="M401.7,427.7c0,32.8,-12.1,63.7,-34.3,87c-23,24.2,-55,37.5,-90.1,37.5l0,-1.6c34.6,0,66.2,-13.2,88.9,-37.1c21.9,-22.9,33.9,-53.4,33.9,-85.8c0,-35,-12.8,-66.6,-36,-89C341.6,316.8,310.7,304.8,277.3,304.8l0,-1.6c33.9,0,65.1,12.1,88,34.3c23.5,22.7,36.4,54.8,36.4,90.2Z" class="g1_1" />
<path d="M401.7,427.7c0,32.8,-12.1,63.7,-34.3,87c-23,24.2,-55,37.5,-90.1,37.5l0,-1.6c34.6,0,66.2,-13.2,88.9,-37.1c21.9,-22.9,33.9,-53.4,33.9,-85.8c0,-35,-12.8,-66.6,-36,-89C341.6,316.8,310.7,304.8,277.3,304.8l0,-1.6c33.9,0,65.1,12.1,88,34.3c23.5,22.7,36.4,54.8,36.4,90.2Z" class="g2_1" />
<path d="M82.1,427.2l696.3,0" class="g4_1" />
<path d="M82.1,675.1l696.3,0" class="g4_1" />
<path d="M82.1,178.9l696.3,0" class="g4_1" />

</svg>
